<svg xmlns="http://www.w3.org/2000/svg" xmlns:xlink="http://www.w3.org/1999/xlink" width="800" height="800" viewBox="0 0 800 800">
  <defs>
    <radialGradient xlink:href="#a" id="b" gradientUnits="userSpaceOnUse" gradientTransform="matrix(1 0 0 1.31274 0 -140.061)" cx="324.696" cy="447.856" fx="324.696" fy="447.856" r="106.468"/>
    <radialGradient xlink:href="#a" id="c" cx="324.696" cy="447.856" fx="324.696" fy="447.856" r="106.468" gradientTransform="matrix(1 0 0 1.31274 0 -140.061)" gradientUnits="userSpaceOnUse"/>
    <linearGradient id="a">
      <stop style="stop-color:#e7ab75;stop-opacity:1" offset="0"/>
      <stop style="stop-color:#e7ab75;stop-opacity:0" offset="1"/>
    </linearGradient>
  </defs>
  <g transform="translate(-31.103 -186.375)">
    <rect rx="17.789" y="186.374" x="31.103" height="800" width="800" style="opacity:.331;fill:#ccc;fill-opacity:1;fill-rule:nonzero;stroke:none;stroke-width:1;stroke-linecap:round;stroke-linejoin:round;stroke-miterlimit:4;stroke-dasharray:none;stroke-opacity:1"/>
    <path d="M431.164 468.41c0 69.534-49.58 119.21-108.38 119.21s-104.556-49.676-104.556-119.21 58.183-160.32 104.556-160.32 108.38 90.785 108.38 160.319z" style="opacity:1;fill:#c17953;fill-opacity:1;stroke:#c17953;stroke-width:3;stroke-miterlimit:4;stroke-dasharray:none;stroke-opacity:1" transform="translate(-130.22 -215.784)scale(1.72876)"/>
    <path style="opacity:.98000004;fill:url(#b);fill-opacity:1;stroke:none;stroke-width:3;stroke-miterlimit:4;stroke-dasharray:none;stroke-opacity:1" d="M431.164 468.41c0 69.534-49.58 119.21-108.38 119.21s-104.556-49.676-104.556-119.21 58.183-160.32 104.556-160.32 108.38 90.785 108.38 160.319" transform="translate(-130.22 -215.784)scale(1.72876)"/>
    <path d="M431.164 468.41c0 69.534-49.58 119.21-108.38 119.21s-104.556-49.676-104.556-119.21 58.183-160.32 104.556-160.32 108.38 90.785 108.38 160.319" style="opacity:1;fill:url(#c);fill-opacity:1;stroke:none;stroke-width:3;stroke-miterlimit:4;stroke-dasharray:none;stroke-opacity:1" transform="translate(-130.22 -215.784)scale(1.72876)"/>
  </g>
</svg>
