<?xml version="1.0" encoding="UTF-8"?>
<svg id="Layer_1" data-name="Layer 1" xmlns="http://www.w3.org/2000/svg" viewBox="0 0 1920 1080">
  <defs>
    <style>
      .cls-1 {
        fill: #b4b4b4;
      }

      .cls-2 {
        fill: #989898;
      }

      .cls-3 {
        fill: #4e4e4e;
      }

      .cls-4 {
        fill: #010101;
      }
    </style>
  </defs>
  <path class="cls-1" d="M941.76,323.12h8.97c7.74,0,14.02,6.28,14.02,14.02v254.91c0,7.74-6.28,14.02-14.02,14.02h-8.97c-7.74,0-14.02-6.28-14.02-14.02v-254.91c0-7.74,6.28-14.02,14.02-14.02"/>
  <path class="cls-2" d="M941.22,324.72c-1.25,0-2.47.2-3.61.55h1.83c7.18,0,13,6.22,13,13.88v252.49c0,6.36-3.97,11.69-9.41,13.35h6.49c7.2,0,13.02-6.19,13.02-13.88v-252.5c0-7.69-5.82-13.88-13.02-13.88h-8.31Z"/>
  <path class="cls-4" d="M927.77,591.88h36.91v15.24h-36.91v-15.24Z"/>
  <path class="cls-4" d="M929.97,635.46h32.49v-29.2h-32.49v29.2Z"/>
  <path class="cls-4" d="M938.33,671.25h16.59c0-12.41,7.53-24.01,7.53-36.42h-32.49c0,12.42,8.36,24.01,8.36,36.42"/>
  <path class="cls-4" d="M946.99,688.36c-6.86-6.24-6.86-11.37-6.86-18.22l6.86-.12,6.41.12c0,6.85,0,11.98-6.41,18.22"/>
  <path class="cls-3" d="M952.3,593.56v11.79h8.3v-11.79h-8.3Z"/>
  <path class="cls-3" d="M952.87,606.83v28.3h-.01c-.18,11.8-5.36,22.87-5.36,34.69h5.13c0-11.83,5.19-22.89,5.36-34.69h.01v-28.3h-5.13Z"/>
</svg>