<?xml version="1.0" encoding="UTF-8"?>
<svg id="Layer_1" data-name="Layer 1" xmlns="http://www.w3.org/2000/svg" viewBox="0 0 900 150">
  <defs>
    <style>
      .cls-1 {
        fill: aqua;
      }

      .cls-2 {
        fill: #ff66c4;
      }

      .cls-3 {
        fill: #0cc0df;
      }

      .cls-4 {
        fill: #8c52ff;
      }

      .cls-5 {
        fill: #f0f;
      }
    </style>
  </defs>
  <g id="ab8f8ec750">
    <path class="cls-5" d="M400.8,58.06c5.45,0,9.22.63,11.32,1.89,2.1,1.21,3.14,2.91,3.14,5.13,0,2.46-1.23,4.3-3.67,5.55-2.46,1.21-6.29,1.78-11.53,1.78-2.59,0-5.53-.03-8.8-.1-3.3-.13-6.68-.31-10.16-.52l1.57-1.15c.55,2.88.68,5.97.42,9.33-.21,3.35-.89,6.58-1.99,9.64l-.52-.63c1.73-.42,3.82-.76,6.29-1.05,2.44-.26,4.95-.47,7.55-.63,2.57-.21,4.95-.31,7.13-.31,4.11,0,7.02.52,8.7,1.57,1.73,1.05,2.62,2.36,2.62,3.88,0,1.76-1,3.22-2.93,4.4-1.96,1.21-5.29,1.78-9.96,1.78-3.51,0-6.99-.1-10.48-.31-3.43-.26-6.71-.65-9.85-1.15l1.15-1.05c.68,2.04,1.21,4.4,1.57,7.13.34,2.67.52,5.34.52,8.07s-.29,5-.84,7.02l-.94-.63c2.02-.76,4.4-1.41,7.13-1.99,2.72-.55,5.48-.97,8.28-1.26,2.86-.34,5.5-.52,7.96-.52,3.56,0,6.21.39,7.96,1.15,1.73.79,2.62,2.07,2.62,3.88,0,1.41-.5,2.62-1.47,3.67-1,1.05-2.67,1.99-5.03,2.83-1.47.58-3.3,1.1-5.45,1.57-2.1.42-4.35.79-6.71,1.05-2.38.26-4.77.42-7.13.42-4.06,0-7.44-.52-10.16-1.57-2.67-1.05-4.58-2.65-5.76-4.82-1.21-2.36-2.1-5.45-2.72-9.22-.63-3.77-.94-8.96-.94-15.61,0-6.08.21-11.06.63-14.99.42-3.98,1-7.18,1.78-9.64.84-2.52,1.78-4.51,2.83-5.97,1.52-2.15,3.62-3.82,6.29-5.03,2.65-1.26,5.66-2.15,9.01-2.72,3.35-.55,6.86-.84,10.58-.84Z"/>
    <path class="cls-5" d="M447.4,68.54c5.66,0,9.69.84,12.16,2.52,2.52,1.62,3.77,3.72,3.77,6.29,0,1.55-.52,2.8-1.57,3.77-1.05,1-2.52,1.47-4.4,1.47-1.96,0-4.03-.26-6.18-.84-2.1-.55-4.56-.84-7.34-.84-3.22,0-5.63.63-7.23,1.89-1.55,1.26-2.31,2.88-2.31,4.82,0,1.83.68,3.25,2.1,4.3,1.39,1.05,4.11,1.83,8.17,2.31,4.53.58,8.28,1.41,11.21,2.52,2.93,1.05,5.13,2.7,6.6,4.93,1.47,2.17,2.2,5.13,2.2,8.91,0,6.03-2.15,10.48-6.39,13.41-4.27,2.93-10.14,4.4-17.61,4.4-4.77,0-8.54-.39-11.32-1.15-2.72-.76-4.72-1.83-5.97-3.25-1.26-1.39-1.89-3.04-1.89-4.93,0-1.68.55-2.96,1.68-3.88,1.1-.89,2.44-1.36,3.98-1.36,1.47,0,2.99.18,4.61.52,1.68.37,3.41.73,5.24,1.15,1.81.37,3.69.52,5.66.52,6.34,0,9.54-1.94,9.54-5.87,0-1.31-.31-2.41-.94-3.25s-1.78-1.49-3.46-1.99c-1.62-.55-4.03-1-7.23-1.36-3.77-.34-7.07-.97-9.85-1.89-2.8-.97-4.98-2.52-6.5-4.61-1.47-2.1-2.2-5.03-2.2-8.8,0-5.87,2.2-10.61,6.6-14.25,4.45-3.62,10.74-5.45,18.86-5.45Z"/>
    <path class="cls-5" d="M490.09,70.84h-1.89c-.16-2.78-.08-5.45.21-7.96.34-2.52,1.05-4.53,2.1-6.08,1.05-1.52,2.54-2.31,4.51-2.31,1.73,0,3.04.58,3.88,1.68.84,1.13,1.26,2.7,1.26,4.72,0,3.98-.79,7.41-2.31,10.27l-1.78-.21c3.41-1.18,7.28-1.78,11.63-1.78,2.72,0,4.87.52,6.5,1.57,1.6,1.05,2.41,2.8,2.41,5.24,0,2.38-.94,4.17-2.83,5.34-1.89,1.21-4.27,1.78-7.13,1.78-1.68,0-3.51-.05-5.45-.21-1.96-.13-3.85-.42-5.66-.84l1.57-1.99c.63,2.46,1.18,5.21,1.68,8.28.55,3.09,1.05,6.26,1.47,9.54.47,3.3.84,6.5,1.05,9.64.26,3.09.42,5.84.42,8.28,0,4.06-.63,7.28-1.89,9.64-1.26,2.31-3.14,3.46-5.66,3.46-1.96,0-3.51-.6-4.61-1.78-1.05-1.18-1.83-2.72-2.31-4.61-.5-1.89-.81-3.82-.94-5.87-.08-2.02-.1-3.82-.1-5.45,0-2.78.1-5.92.31-9.43.26-3.56.65-7.18,1.15-10.9.47-3.77,1.05-7.39,1.68-10.9l1.89,1.68c-3.22,1.62-7.2,2.41-11.95,2.41-2.93,0-5.21-.52-6.81-1.57-1.55-1.05-2.31-2.72-2.31-5.03,0-2.44.86-4.32,2.62-5.66,1.81-1.39,4.19-2.1,7.13-2.1,2.02,0,3.88.1,5.55.31,1.73.21,3.27.5,4.61.84Z"/>
    <path class="cls-5" d="M549.9,128.69c-7.07,0-12.68-1.05-16.87-3.14-4.14-2.1-7.13-5.08-9.01-9.01-1.83-3.9-2.72-8.59-2.72-14.04,0-6.92,1.28-12.78,3.88-17.61,2.57-4.82,6.1-8.51,10.58-11.11,4.53-2.57,9.69-3.88,15.51-3.88,6.76,0,11.74,1.57,14.88,4.72,3.14,3.09,4.72,7.18,4.72,12.26,0,4.06-1.1,7.55-3.25,10.48-2.1,2.93-5,5.21-8.7,6.81-3.72,1.55-8.02,2.31-12.89,2.31-2.72,0-5.4-.34-7.96-1.05-2.52-.68-4.79-1.62-6.81-2.83l2.31-4.19c-.21,1.55-.31,3.09-.31,4.61,0,4.4,1.39,7.6,4.19,9.54,2.78,1.89,6.76,2.83,11.95,2.83,3.98,0,7.15-.34,9.54-1.05,2.36-.68,4.4-1.36,6.08-1.99,1.68-.68,3.27-1.05,4.82-1.05.89,0,1.7.26,2.41.73.76.5,1.36,1.21,1.78,2.1.47.84.73,1.94.73,3.25,0,1.89-.94,3.72-2.83,5.45-1.89,1.76-4.69,3.2-8.38,4.3-3.72,1.05-8.25,1.57-13.62,1.57ZM544.35,97.67c4.53,0,8.17-.94,10.9-2.83,2.72-1.89,4.09-4.22,4.09-7.02,0-2.23-.79-4.03-2.31-5.45-1.47-1.47-3.77-2.2-6.92-2.2-3.01,0-5.71.58-8.07,1.68-2.38,1.13-4.24,2.59-5.55,4.4-1.34,1.76-1.99,3.67-1.99,5.76,0,1.83.86,3.22,2.62,4.19,1.73,1,4.14,1.47,7.23,1.47Z"/>
    <path class="cls-5" d="M589.54,69.06c1.68,0,3.07,1.02,4.19,3.04,1.18,1.96,1.99,5.11,2.41,9.43l-1.99,1.78c1.18-4.4,3.3-7.75,6.39-10.06,3.07-2.36,6.73-3.56,11-3.56,3.9,0,7.36,1.02,10.37,3.04,3.07,2.04,5.48,5.11,7.23,9.22,1.73,4.06,2.62,9.12,2.62,15.19,0,10.01-1.78,17.37-5.34,22.11-3.56,4.69-8.44,7.02-14.57,7.02-4.48,0-7.96-.94-10.48-2.83-2.52-1.94-4.3-4.3-5.34-7.02l1.15-.52c.55,3.77.97,7.52,1.26,11.21.34,3.69.52,6.94.52,9.75,0,2.86-.52,5.27-1.57,7.23-1,1.94-2.57,2.93-4.72,2.93-2.17,0-3.82-.84-4.93-2.52-1.05-1.62-1.83-3.77-2.31-6.5-.42-2.8-.81-6.37-1.15-10.69-.37-4.4-.68-9.12-.94-14.15-.21-5.08-.31-10.06-.31-14.88s.16-9.48.52-13.83c.34-4.32.76-7.86,1.26-10.58.47-1.6,1.07-2.78,1.78-3.56.76-.84,1.73-1.26,2.93-1.26ZM607.67,80.59c-3.43,0-6.18,1.73-8.28,5.13-2.04,3.35-3.04,7.65-3.04,12.89,0,5.4,1,9.41,3.04,12.05,2.1,2.67,4.77,3.98,8.07,3.98,3.77,0,6.5-1.49,8.17-4.51,1.68-2.99,2.52-6.92,2.52-11.74,0-6.13-1.05-10.64-3.14-13.52-2.04-2.86-4.48-4.3-7.34-4.3Z"/>
    <path class="cls-5" d="M651.13,52.71c2.02,0,3.41.81,4.19,2.41.76,1.62,1.15,3.98,1.15,7.13,0,2.72-.18,6.16-.52,10.27-.29,4.14-.68,8.07-1.15,11.84h-.63c2.1-3.9,4.77-7.05,8.07-9.43,3.35-2.44,6.84-3.67,10.48-3.67,3.2,0,6.08.81,8.59,2.41,2.57,1.55,4.64,3.96,6.18,7.23,1.47,2.93,2.54,6.47,3.25,10.58.68,4.06,1.05,7.94,1.05,11.63,0,5.87-.39,10.56-1.15,14.04-.79,3.51-1.86,6.03-3.25,7.55-1.41,1.55-3.04,2.31-4.93,2.31-4.06,0-6.08-3.25-6.08-9.75,0-3.2.16-6.5.52-9.85.34-3.35.52-6.42.52-9.22,0-4.74-.73-8.28-2.2-10.58-1.47-2.36-3.62-3.56-6.39-3.56-3.51,0-6.34,1.55-8.49,4.61-2.1,3.09-3.14,7.34-3.14,12.78,0,2.88.24,6.03.73,9.43.47,3.35.73,6.44.73,9.22,0,3.09-.6,5.32-1.78,6.71-1.13,1.31-2.62,1.99-4.51,1.99-1.41,0-2.62-.29-3.67-.84-1.05-.47-1.94-1.52-2.62-3.14-.71-1.6-1.34-4.03-1.89-7.34-.37-2.44-.73-5.29-1.15-8.59-.37-3.27-.68-6.73-.94-10.37-.21-3.62-.42-7.15-.63-10.58-.16-3.41-.21-6.55-.21-9.43,0-9.01.84-15.54,2.52-19.6,1.73-4.11,4.19-6.18,7.34-6.18Z"/>
    <path class="cls-5" d="M744.81,128.9c-2.17,0-3.64-.84-4.4-2.52-.79-1.68-1.23-4.35-1.36-8.07l.94.52c-3.56,6.92-10.27,10.37-20.12,10.37-4.48,0-8.23-.81-11.21-2.41-3.01-1.6-5.21-3.72-6.6-6.39-1.41-2.72-2.1-5.68-2.1-8.91,0-5.45,1.89-9.75,5.66-12.89,3.77-3.2,8.8-4.82,15.09-4.82,4.11,0,7.68.6,10.69,1.78,3.07,1.21,5.68,2.88,7.86,5.03l-1.68-.21c-.42-6.34-1.78-10.9-4.09-13.62-2.31-2.78-5.61-4.19-9.85-4.19-2.46,0-4.72.39-6.81,1.15-2.1.79-4.03,1.55-5.76,2.31-1.76.79-3.41,1.15-4.93,1.15-1.47,0-2.67-.47-3.56-1.47-.84-1.05-1.26-2.33-1.26-3.88,0-2.31,1.07-4.45,3.25-6.5,2.23-2.02,5.13-3.67,8.7-4.93,3.62-1.26,7.57-1.89,11.84-1.89,5.08,0,9.46,1.26,13.1,3.77,3.69,2.46,6.5,6.03,8.38,10.69,1.68,4.06,2.86,8.59,3.56,13.62.68,5.03,1.05,10.37,1.05,16.03,0,4.35-.26,7.7-.73,10.06-.42,2.31-1.1,3.93-1.99,4.82-.92.89-2.15,1.36-3.67,1.36ZM723.86,118.31c2.1,0,4.19-.31,6.29-.94,2.15-.63,3.98-1.52,5.45-2.72,1.47-1.18,2.2-2.65,2.2-4.4,0-1.52-.63-2.78-1.89-3.77-1.21-.97-2.8-1.7-4.82-2.2-1.96-.55-4.09-.84-6.39-.84-3.85,0-6.79.68-8.8,1.99-1.96,1.34-2.93,3.12-2.93,5.34,0,2.38.89,4.24,2.72,5.55,1.89,1.34,4.61,1.99,8.17,1.99Z"/>
    <path class="cls-5" d="M772.44,68.85c2.02,0,3.38.84,4.09,2.52.76,1.68,1.15,4.14,1.15,7.34,0,.79-.08,1.57-.21,2.41-.08.84-.21,1.62-.42,2.31l-.21-1.89c1.52-4.11,3.88-7.34,7.02-9.64,3.2-2.31,6.55-3.46,10.06-3.46,3.98,0,7.26,1.13,9.85,3.35,2.65,2.17,4.61,5.29,5.87,9.33,1.31,3.98,1.99,8.67,1.99,14.04,0,3.35-.16,6.68-.42,9.96-.29,3.3-.68,6.29-1.15,9.01-.5,2.67-1.02,4.82-1.57,6.5-.79,2.17-1.76,3.77-2.93,4.82-1.21,1.05-2.62,1.57-4.3,1.57-1.62,0-2.88-.58-3.77-1.78-.92-1.18-1.36-2.78-1.36-4.82,0-2.15.13-4.77.42-7.86.34-3.07.65-6.21.94-9.43.26-3.2.42-6.1.42-8.7,0-8.85-2.91-13.31-8.7-13.31-3.09,0-5.66,1.41-7.75,4.19-2.1,2.72-3.51,6.65-4.19,11.74-.21,1.68-.31,3.82-.31,6.39,0,2.52,0,5.03,0,7.55.05,2.46,0,4.56-.21,6.29-.21,3.77-.92,6.5-2.1,8.17-1.21,1.62-2.8,2.41-4.82,2.41-2.31,0-4.09-1.07-5.34-3.25-1.21-2.15-1.78-5.87-1.78-11.11,0-2.65.05-5.61.21-8.91.13-3.27.31-6.55.52-9.85.21-3.35.47-6.39.84-9.12.63-5.08,1.52-9.14,2.72-12.16,1.18-3.07,2.99-4.61,5.45-4.61Z"/>
    <path class="cls-5" d="M832.55,146.82c-3.43,0-5.13-1.83-5.13-5.45,0-2.04.68-4.45,2.1-7.23,1.39-2.8,3.41-5.82,6.08-9.01,2.72-3.2,6-6.5,9.85-9.85l-.1.73c-8.38-8.38-14.75-15.72-19.07-22.01-4.35-6.34-6.5-11.84-6.5-16.45,0-2.31.55-4.09,1.68-5.34,1.18-1.26,2.75-1.89,4.72-1.89,4.19,0,8.33,3.04,12.47,9.12,4.11,6.08,7.99,15.35,11.63,27.77h.42c2.36-13.05,4.93-22.64,7.65-28.71,2.72-6.13,5.97-9.22,9.75-9.22,1.73,0,3.04.63,3.88,1.89.89,1.21,1.36,2.91,1.36,5.13,0,1.83-.42,4.24-1.26,7.23-.79,3.01-1.89,6.39-3.35,10.16-1.41,3.77-3.04,7.7-4.93,11.74-1.83,4.06-3.85,8.04-6.08,11.95-5.66,10.22-10.48,17.63-14.46,22.32-3.98,4.74-7.55,7.13-10.69,7.13Z"/>
    <path class="cls-1" d="M390.04,53.04c5.45,0,9.22.63,11.32,1.89,2.1,1.21,3.14,2.91,3.14,5.13,0,2.46-1.23,4.3-3.67,5.55-2.46,1.21-6.29,1.78-11.53,1.78-2.59,0-5.53-.03-8.8-.1-3.3-.13-6.68-.31-10.16-.52l1.57-1.15c.55,2.88.68,5.97.42,9.33-.21,3.35-.89,6.58-1.99,9.64l-.52-.63c1.73-.42,3.82-.76,6.29-1.05,2.44-.26,4.95-.47,7.55-.63,2.57-.21,4.95-.31,7.13-.31,4.11,0,7.02.52,8.7,1.57,1.73,1.05,2.62,2.36,2.62,3.88,0,1.76-1,3.22-2.93,4.4-1.96,1.21-5.29,1.78-9.96,1.78-3.51,0-6.99-.1-10.48-.31-3.43-.26-6.71-.65-9.85-1.15l1.15-1.05c.68,2.04,1.21,4.4,1.57,7.13.34,2.67.52,5.34.52,8.07,0,2.67-.29,5-.84,7.02l-.94-.63c2.02-.76,4.4-1.41,7.13-1.99,2.72-.55,5.48-.97,8.28-1.26,2.86-.34,5.5-.52,7.96-.52,3.56,0,6.21.39,7.96,1.15,1.73.79,2.62,2.07,2.62,3.88,0,1.41-.5,2.62-1.47,3.67-1,1.05-2.67,1.99-5.03,2.83-1.47.58-3.3,1.1-5.45,1.57-2.1.42-4.35.79-6.71,1.05-2.38.26-4.77.42-7.13.42-4.06,0-7.44-.52-10.16-1.57-2.67-1.05-4.58-2.65-5.76-4.82-1.21-2.36-2.1-5.45-2.72-9.22-.63-3.77-.94-8.96-.94-15.61,0-6.08.21-11.06.63-14.99.42-3.98,1-7.18,1.78-9.64.84-2.52,1.78-4.51,2.83-5.97,1.52-2.15,3.62-3.82,6.29-5.03,2.65-1.26,5.66-2.15,9.01-2.72,3.35-.55,6.86-.84,10.58-.84Z"/>
    <path class="cls-1" d="M436.65,63.52c5.66,0,9.69.84,12.16,2.52,2.52,1.62,3.77,3.72,3.77,6.29,0,1.55-.52,2.8-1.57,3.77-1.05,1-2.52,1.47-4.4,1.47s-4.03-.26-6.18-.84c-2.1-.55-4.56-.84-7.34-.84-3.22,0-5.63.63-7.23,1.89-1.55,1.26-2.31,2.88-2.31,4.82,0,1.83.68,3.25,2.1,4.3,1.39,1.05,4.11,1.83,8.17,2.31,4.53.58,8.28,1.41,11.21,2.52,2.93,1.05,5.13,2.7,6.6,4.93,1.47,2.17,2.2,5.13,2.2,8.91,0,6.03-2.15,10.48-6.39,13.41-4.27,2.93-10.14,4.4-17.61,4.4-4.77,0-8.54-.39-11.32-1.15-2.72-.76-4.72-1.83-5.97-3.25-1.26-1.39-1.89-3.04-1.89-4.93,0-1.68.55-2.96,1.68-3.88,1.1-.89,2.44-1.36,3.98-1.36,1.47,0,2.99.18,4.61.52,1.68.37,3.41.73,5.24,1.15,1.81.37,3.69.52,5.66.52,6.34,0,9.54-1.94,9.54-5.87,0-1.31-.31-2.41-.94-3.25s-1.78-1.49-3.46-1.99c-1.62-.55-4.03-1-7.23-1.36-3.77-.34-7.07-.97-9.85-1.89-2.8-.97-4.98-2.52-6.5-4.61-1.47-2.1-2.2-5.03-2.2-8.8,0-5.87,2.2-10.61,6.6-14.25,4.45-3.62,10.74-5.45,18.86-5.45Z"/>
    <path class="cls-1" d="M479.33,65.83h-1.89c-.16-2.78-.08-5.45.21-7.96.34-2.52,1.05-4.53,2.1-6.08,1.05-1.52,2.54-2.31,4.51-2.31,1.73,0,3.04.58,3.88,1.68.84,1.13,1.26,2.7,1.26,4.72,0,3.98-.79,7.41-2.31,10.27l-1.78-.21c3.41-1.18,7.28-1.78,11.63-1.78,2.72,0,4.87.52,6.5,1.57,1.6,1.05,2.41,2.8,2.41,5.24s-.94,4.17-2.83,5.34c-1.89,1.21-4.27,1.78-7.13,1.78-1.68,0-3.51-.05-5.45-.21-1.96-.13-3.85-.42-5.66-.84l1.57-1.99c.63,2.46,1.18,5.21,1.68,8.28.55,3.09,1.05,6.26,1.47,9.54.47,3.3.84,6.5,1.05,9.64.26,3.09.42,5.84.42,8.28,0,4.06-.63,7.28-1.89,9.64-1.26,2.31-3.14,3.46-5.66,3.46-1.96,0-3.51-.6-4.61-1.78-1.05-1.18-1.83-2.72-2.31-4.61-.5-1.89-.81-3.82-.94-5.87-.08-2.02-.1-3.82-.1-5.45,0-2.78.1-5.92.31-9.43.26-3.56.65-7.18,1.15-10.9.47-3.77,1.05-7.39,1.68-10.9l1.89,1.68c-3.22,1.62-7.2,2.41-11.95,2.41-2.93,0-5.21-.52-6.81-1.57-1.55-1.05-2.31-2.72-2.31-5.03,0-2.44.86-4.32,2.62-5.66,1.81-1.39,4.19-2.1,7.13-2.1,2.02,0,3.88.1,5.55.31,1.73.21,3.27.5,4.61.84Z"/>
    <path class="cls-1" d="M539.15,123.67c-7.07,0-12.68-1.05-16.87-3.14-4.14-2.1-7.13-5.08-9.01-9.01-1.83-3.9-2.72-8.59-2.72-14.04,0-6.92,1.28-12.78,3.88-17.61,2.57-4.82,6.1-8.51,10.58-11.11,4.53-2.57,9.69-3.88,15.51-3.88,6.76,0,11.74,1.57,14.88,4.72,3.14,3.09,4.72,7.18,4.72,12.26,0,4.06-1.1,7.55-3.25,10.48-2.1,2.93-5,5.21-8.7,6.81-3.72,1.55-8.02,2.31-12.89,2.31-2.72,0-5.4-.34-7.96-1.05-2.52-.68-4.79-1.62-6.81-2.83l2.31-4.19c-.21,1.55-.31,3.09-.31,4.61,0,4.4,1.39,7.6,4.19,9.54,2.78,1.89,6.76,2.83,11.95,2.83,3.98,0,7.15-.34,9.54-1.05,2.36-.68,4.4-1.36,6.08-1.99,1.68-.68,3.27-1.05,4.82-1.05.89,0,1.7.26,2.41.73.76.5,1.36,1.21,1.78,2.1.47.84.73,1.94.73,3.25,0,1.89-.94,3.72-2.83,5.45-1.89,1.76-4.69,3.2-8.38,4.3-3.72,1.05-8.25,1.57-13.62,1.57ZM533.59,92.65c4.53,0,8.17-.94,10.9-2.83s4.09-4.22,4.09-7.02c0-2.23-.79-4.03-2.31-5.45-1.47-1.47-3.77-2.2-6.92-2.2-3.01,0-5.71.58-8.07,1.68-2.38,1.13-4.24,2.59-5.55,4.4-1.34,1.76-1.99,3.67-1.99,5.76,0,1.83.86,3.22,2.62,4.19,1.73,1,4.14,1.47,7.23,1.47Z"/>
    <path class="cls-1" d="M578.78,64.04c1.68,0,3.07,1.02,4.19,3.04,1.18,1.96,1.99,5.11,2.41,9.43l-1.99,1.78c1.18-4.4,3.3-7.75,6.39-10.06,3.07-2.36,6.73-3.56,11-3.56,3.9,0,7.36,1.02,10.37,3.04,3.07,2.04,5.48,5.11,7.23,9.22,1.73,4.06,2.62,9.12,2.62,15.19,0,10.01-1.78,17.37-5.34,22.11-3.56,4.69-8.44,7.02-14.57,7.02-4.48,0-7.96-.94-10.48-2.83-2.52-1.94-4.3-4.3-5.34-7.02l1.15-.52c.55,3.77.97,7.52,1.26,11.21.34,3.69.52,6.94.52,9.75,0,2.86-.52,5.27-1.57,7.23-1,1.94-2.57,2.93-4.72,2.93s-3.82-.84-4.93-2.52c-1.05-1.62-1.83-3.77-2.31-6.5-.42-2.8-.81-6.37-1.15-10.69-.37-4.4-.68-9.12-.94-14.15-.21-5.08-.31-10.06-.31-14.88,0-4.87.16-9.48.52-13.83.34-4.32.76-7.86,1.26-10.58.47-1.6,1.07-2.78,1.78-3.56.76-.84,1.73-1.26,2.93-1.26ZM596.91,75.57c-3.43,0-6.18,1.73-8.28,5.13-2.04,3.35-3.04,7.65-3.04,12.89,0,5.4,1,9.41,3.04,12.05,2.1,2.67,4.77,3.98,8.07,3.98,3.77,0,6.5-1.49,8.17-4.51,1.68-2.99,2.52-6.92,2.52-11.74,0-6.13-1.05-10.64-3.14-13.52-2.04-2.86-4.48-4.3-7.34-4.3Z"/>
    <path class="cls-1" d="M640.38,47.7c2.02,0,3.41.81,4.19,2.41.76,1.62,1.15,3.98,1.15,7.13,0,2.72-.18,6.16-.52,10.27-.29,4.14-.68,8.07-1.15,11.84h-.63c2.1-3.9,4.77-7.05,8.07-9.43,3.35-2.44,6.84-3.67,10.48-3.67,3.2,0,6.08.81,8.59,2.41,2.57,1.55,4.64,3.96,6.18,7.23,1.47,2.93,2.54,6.47,3.25,10.58.68,4.06,1.05,7.94,1.05,11.63,0,5.87-.39,10.56-1.15,14.04-.79,3.51-1.86,6.03-3.25,7.55-1.41,1.55-3.04,2.31-4.93,2.31-4.06,0-6.08-3.25-6.08-9.75,0-3.2.16-6.5.52-9.85.34-3.35.52-6.42.52-9.22,0-4.74-.73-8.28-2.2-10.58-1.47-2.36-3.62-3.56-6.39-3.56-3.51,0-6.34,1.55-8.49,4.61-2.1,3.09-3.14,7.34-3.14,12.78,0,2.88.24,6.03.73,9.43.47,3.35.73,6.44.73,9.22,0,3.09-.6,5.32-1.78,6.71-1.13,1.31-2.62,1.99-4.51,1.99-1.41,0-2.62-.29-3.67-.84-1.05-.47-1.94-1.52-2.62-3.14-.71-1.6-1.34-4.03-1.89-7.34-.37-2.44-.73-5.29-1.15-8.59-.37-3.27-.68-6.73-.94-10.37-.21-3.62-.42-7.15-.63-10.58-.16-3.41-.21-6.55-.21-9.43,0-9.01.84-15.54,2.52-19.6,1.73-4.11,4.19-6.18,7.34-6.18Z"/>
    <path class="cls-1" d="M734.06,123.88c-2.17,0-3.64-.84-4.4-2.52-.79-1.68-1.23-4.35-1.36-8.07l.94.52c-3.56,6.92-10.27,10.37-20.12,10.37-4.48,0-8.23-.81-11.21-2.41-3.01-1.6-5.21-3.72-6.6-6.39-1.41-2.72-2.1-5.68-2.1-8.91,0-5.45,1.89-9.75,5.66-12.89,3.77-3.2,8.8-4.82,15.09-4.82,4.11,0,7.68.6,10.69,1.78,3.07,1.21,5.68,2.88,7.86,5.03l-1.68-.21c-.42-6.34-1.78-10.9-4.09-13.62-2.31-2.78-5.61-4.19-9.85-4.19-2.46,0-4.72.39-6.81,1.15-2.1.79-4.03,1.55-5.76,2.31-1.76.79-3.41,1.15-4.93,1.15-1.47,0-2.67-.47-3.56-1.47-.84-1.05-1.26-2.33-1.26-3.88,0-2.31,1.07-4.45,3.25-6.5,2.23-2.02,5.13-3.67,8.7-4.93,3.62-1.26,7.57-1.89,11.84-1.89,5.08,0,9.46,1.26,13.1,3.77,3.69,2.46,6.5,6.03,8.38,10.69,1.68,4.06,2.86,8.59,3.56,13.62.68,5.03,1.05,10.37,1.05,16.03,0,4.35-.26,7.7-.73,10.06-.42,2.31-1.1,3.93-1.99,4.82-.92.89-2.15,1.36-3.67,1.36ZM713.1,113.3c2.1,0,4.19-.31,6.29-.94,2.15-.63,3.98-1.52,5.45-2.72,1.47-1.18,2.2-2.65,2.2-4.4,0-1.52-.63-2.78-1.89-3.77-1.21-.97-2.8-1.7-4.82-2.2-1.96-.55-4.09-.84-6.39-.84-3.85,0-6.79.68-8.8,1.99-1.96,1.34-2.93,3.12-2.93,5.34,0,2.38.89,4.24,2.72,5.55,1.89,1.34,4.61,1.99,8.17,1.99Z"/>
    <path class="cls-1" d="M761.68,63.83c2.02,0,3.38.84,4.09,2.52.76,1.68,1.15,4.14,1.15,7.34,0,.79-.08,1.57-.21,2.41-.08.84-.21,1.62-.42,2.31l-.21-1.89c1.52-4.11,3.88-7.34,7.02-9.64,3.2-2.31,6.55-3.46,10.06-3.46,3.98,0,7.26,1.13,9.85,3.35,2.65,2.17,4.61,5.29,5.87,9.33,1.31,3.98,1.99,8.67,1.99,14.04,0,3.35-.16,6.68-.42,9.96-.29,3.3-.68,6.29-1.15,9.01-.5,2.67-1.02,4.82-1.57,6.5-.79,2.17-1.76,3.77-2.93,4.82-1.21,1.05-2.62,1.57-4.3,1.57s-2.88-.58-3.77-1.78c-.92-1.18-1.36-2.78-1.36-4.82,0-2.15.13-4.77.42-7.86.34-3.07.65-6.21.94-9.43.26-3.2.42-6.1.42-8.7,0-8.85-2.91-13.31-8.7-13.31-3.09,0-5.66,1.41-7.75,4.19-2.1,2.72-3.51,6.65-4.19,11.74-.21,1.68-.31,3.82-.31,6.39,0,2.52,0,5.03,0,7.55.05,2.46,0,4.56-.21,6.29-.21,3.77-.92,6.5-2.1,8.17-1.21,1.62-2.8,2.41-4.82,2.41-2.31,0-4.09-1.07-5.34-3.25-1.21-2.15-1.78-5.87-1.78-11.11,0-2.65.05-5.61.21-8.91.13-3.27.31-6.55.52-9.85.21-3.35.47-6.39.84-9.12.63-5.08,1.52-9.14,2.72-12.16,1.18-3.07,2.99-4.61,5.45-4.61Z"/>
    <path class="cls-1" d="M821.79,141.8c-3.43,0-5.13-1.83-5.13-5.45,0-2.04.68-4.45,2.1-7.23,1.39-2.8,3.41-5.82,6.08-9.01,2.72-3.2,6-6.5,9.85-9.85l-.1.73c-8.38-8.38-14.75-15.72-19.07-22.01-4.35-6.34-6.5-11.84-6.5-16.45,0-2.31.55-4.09,1.68-5.34,1.18-1.26,2.75-1.89,4.72-1.89,4.19,0,8.33,3.04,12.47,9.12,4.11,6.08,7.99,15.35,11.63,27.77h.42c2.36-13.05,4.93-22.64,7.65-28.71,2.72-6.13,5.97-9.22,9.75-9.22,1.73,0,3.04.63,3.88,1.89.89,1.21,1.36,2.91,1.36,5.13,0,1.83-.42,4.24-1.26,7.23-.79,3.01-1.89,6.39-3.35,10.16-1.41,3.77-3.04,7.7-4.93,11.74-1.83,4.06-3.85,8.04-6.08,11.95-5.66,10.22-10.48,17.63-14.46,22.32-3.98,4.74-7.55,7.13-10.69,7.13Z"/>
    <path class="cls-3" d="M395.42,55.55c5.45,0,9.22.63,11.32,1.89,2.1,1.21,3.14,2.91,3.14,5.13,0,2.46-1.23,4.3-3.67,5.55-2.46,1.21-6.29,1.78-11.53,1.78-2.59,0-5.53-.03-8.8-.1-3.3-.13-6.68-.31-10.16-.52l1.57-1.15c.55,2.88.68,5.97.42,9.33-.21,3.35-.89,6.58-1.99,9.64l-.52-.63c1.73-.42,3.82-.76,6.29-1.05,2.44-.26,4.95-.47,7.55-.63,2.57-.21,4.95-.31,7.13-.31,4.11,0,7.02.52,8.7,1.57,1.73,1.05,2.62,2.36,2.62,3.88,0,1.76-1,3.22-2.93,4.4-1.96,1.21-5.29,1.78-9.96,1.78-3.51,0-6.99-.1-10.48-.31-3.43-.26-6.71-.65-9.85-1.15l1.15-1.05c.68,2.04,1.21,4.4,1.57,7.13.34,2.67.52,5.34.52,8.07,0,2.67-.29,5-.84,7.02l-.94-.63c2.02-.76,4.4-1.41,7.13-1.99,2.72-.55,5.48-.97,8.28-1.26,2.86-.34,5.5-.52,7.96-.52,3.56,0,6.21.39,7.96,1.15,1.73.79,2.62,2.07,2.62,3.88,0,1.41-.5,2.62-1.47,3.67-1,1.05-2.67,1.99-5.03,2.83-1.47.58-3.3,1.1-5.45,1.57-2.1.42-4.35.79-6.71,1.05-2.38.26-4.77.42-7.13.42-4.06,0-7.44-.52-10.16-1.57-2.67-1.05-4.58-2.65-5.76-4.82-1.21-2.36-2.1-5.45-2.72-9.22-.63-3.77-.94-8.96-.94-15.61,0-6.08.21-11.06.63-14.99.42-3.98,1-7.18,1.78-9.64.84-2.52,1.78-4.51,2.83-5.97,1.52-2.15,3.62-3.82,6.29-5.03,2.65-1.26,5.66-2.15,9.01-2.72,3.35-.55,6.86-.84,10.58-.84Z"/>
    <path class="cls-3" d="M442.03,66.03c5.66,0,9.69.84,12.16,2.52,2.52,1.62,3.77,3.72,3.77,6.29,0,1.55-.52,2.8-1.57,3.77-1.05,1-2.52,1.47-4.4,1.47s-4.03-.26-6.18-.84c-2.1-.55-4.56-.84-7.34-.84-3.22,0-5.63.63-7.23,1.89-1.55,1.26-2.31,2.88-2.31,4.82,0,1.83.68,3.25,2.1,4.3,1.39,1.05,4.11,1.83,8.17,2.31,4.53.58,8.28,1.41,11.21,2.52,2.93,1.05,5.13,2.7,6.6,4.93,1.47,2.17,2.2,5.13,2.2,8.91,0,6.03-2.15,10.48-6.39,13.41-4.27,2.93-10.14,4.4-17.61,4.4-4.77,0-8.54-.39-11.32-1.15-2.72-.76-4.72-1.83-5.97-3.25-1.26-1.39-1.89-3.04-1.89-4.93,0-1.68.55-2.96,1.68-3.88,1.1-.89,2.44-1.36,3.98-1.36,1.47,0,2.99.18,4.61.52,1.68.37,3.41.73,5.24,1.15,1.81.37,3.69.52,5.66.52,6.34,0,9.54-1.94,9.54-5.87,0-1.31-.31-2.41-.94-3.25s-1.78-1.49-3.46-1.99c-1.62-.55-4.03-1-7.23-1.36-3.77-.34-7.07-.97-9.85-1.89-2.8-.97-4.98-2.52-6.5-4.61-1.47-2.1-2.2-5.03-2.2-8.8,0-5.87,2.2-10.61,6.6-14.25,4.45-3.62,10.74-5.45,18.86-5.45Z"/>
    <path class="cls-3" d="M484.71,68.33h-1.89c-.16-2.78-.08-5.45.21-7.96.34-2.52,1.05-4.53,2.1-6.08,1.05-1.52,2.54-2.31,4.51-2.31,1.73,0,3.04.58,3.88,1.68.84,1.13,1.26,2.7,1.26,4.72,0,3.98-.79,7.41-2.31,10.27l-1.78-.21c3.41-1.18,7.28-1.78,11.63-1.78,2.72,0,4.87.52,6.5,1.57,1.6,1.05,2.41,2.8,2.41,5.24,0,2.38-.94,4.17-2.83,5.34-1.89,1.21-4.27,1.78-7.13,1.78-1.68,0-3.51-.05-5.45-.21-1.96-.13-3.85-.42-5.66-.84l1.57-1.99c.63,2.46,1.18,5.21,1.68,8.28.55,3.09,1.05,6.26,1.47,9.54.47,3.3.84,6.5,1.05,9.64.26,3.09.42,5.84.42,8.28,0,4.06-.63,7.28-1.89,9.64-1.26,2.31-3.14,3.46-5.66,3.46-1.96,0-3.51-.6-4.61-1.78-1.05-1.18-1.83-2.72-2.31-4.61-.5-1.89-.81-3.82-.94-5.87-.08-2.02-.1-3.82-.1-5.45,0-2.78.1-5.92.31-9.43.26-3.56.65-7.18,1.15-10.9.47-3.77,1.05-7.39,1.68-10.9l1.89,1.68c-3.22,1.62-7.2,2.41-11.95,2.41-2.93,0-5.21-.52-6.81-1.57-1.55-1.05-2.31-2.72-2.31-5.03s.86-4.32,2.62-5.66c1.81-1.39,4.19-2.1,7.13-2.1,2.02,0,3.88.1,5.55.31,1.73.21,3.27.5,4.61.84Z"/>
    <path class="cls-3" d="M544.52,126.18c-7.07,0-12.68-1.05-16.87-3.14-4.14-2.1-7.13-5.08-9.01-9.01-1.83-3.9-2.72-8.59-2.72-14.04,0-6.92,1.28-12.78,3.88-17.61,2.57-4.82,6.1-8.51,10.58-11.11,4.53-2.57,9.69-3.88,15.51-3.88,6.76,0,11.74,1.57,14.88,4.72,3.14,3.09,4.72,7.18,4.72,12.26,0,4.06-1.1,7.55-3.25,10.48-2.1,2.93-5,5.21-8.7,6.81-3.72,1.55-8.02,2.31-12.89,2.31-2.72,0-5.4-.34-7.96-1.05-2.52-.68-4.79-1.62-6.81-2.83l2.31-4.19c-.21,1.55-.31,3.09-.31,4.61,0,4.4,1.39,7.6,4.19,9.54,2.78,1.89,6.76,2.83,11.95,2.83,3.98,0,7.15-.34,9.54-1.05,2.36-.68,4.4-1.36,6.08-1.99,1.68-.68,3.27-1.05,4.82-1.05.89,0,1.7.26,2.41.73.76.5,1.36,1.21,1.78,2.1.47.84.73,1.94.73,3.25,0,1.89-.94,3.72-2.83,5.45-1.89,1.76-4.69,3.2-8.38,4.3-3.72,1.05-8.25,1.57-13.62,1.57ZM538.97,95.16c4.53,0,8.17-.94,10.9-2.83,2.72-1.89,4.09-4.22,4.09-7.02,0-2.23-.79-4.03-2.31-5.45-1.47-1.47-3.77-2.2-6.92-2.2s-5.71.58-8.07,1.68c-2.38,1.13-4.24,2.59-5.55,4.4-1.34,1.76-1.99,3.67-1.99,5.76,0,1.83.86,3.22,2.62,4.19,1.73,1,4.14,1.47,7.23,1.47Z"/>
    <path class="cls-3" d="M584.16,66.55c1.68,0,3.07,1.02,4.19,3.04,1.18,1.96,1.99,5.11,2.41,9.43l-1.99,1.78c1.18-4.4,3.3-7.75,6.39-10.06,3.07-2.36,6.73-3.56,11-3.56,3.9,0,7.36,1.02,10.37,3.04,3.07,2.04,5.48,5.11,7.23,9.22,1.73,4.06,2.62,9.12,2.62,15.19,0,10.01-1.78,17.37-5.34,22.11-3.56,4.69-8.44,7.02-14.57,7.02-4.48,0-7.96-.94-10.48-2.83-2.52-1.94-4.3-4.3-5.34-7.02l1.15-.52c.55,3.77.97,7.52,1.26,11.21.34,3.69.52,6.94.52,9.75s-.52,5.27-1.57,7.23c-1,1.94-2.57,2.93-4.72,2.93s-3.82-.84-4.93-2.52c-1.05-1.62-1.83-3.77-2.31-6.5-.42-2.8-.81-6.37-1.15-10.69-.37-4.4-.68-9.12-.94-14.15-.21-5.08-.31-10.06-.31-14.88s.16-9.48.52-13.83c.34-4.32.76-7.86,1.26-10.58.47-1.6,1.07-2.78,1.78-3.56.76-.84,1.73-1.26,2.93-1.26ZM602.29,78.08c-3.43,0-6.18,1.73-8.28,5.13-2.04,3.35-3.04,7.65-3.04,12.89,0,5.4,1,9.41,3.04,12.05,2.1,2.67,4.77,3.98,8.07,3.98,3.77,0,6.5-1.49,8.17-4.51,1.68-2.99,2.52-6.92,2.52-11.74,0-6.13-1.05-10.64-3.14-13.52-2.04-2.86-4.48-4.3-7.34-4.3Z"/>
    <path class="cls-3" d="M645.75,50.2c2.02,0,3.41.81,4.19,2.41.76,1.62,1.15,3.98,1.15,7.13,0,2.72-.18,6.16-.52,10.27-.29,4.14-.68,8.07-1.15,11.84h-.63c2.1-3.9,4.77-7.05,8.07-9.43,3.35-2.44,6.84-3.67,10.48-3.67,3.2,0,6.08.81,8.59,2.41,2.57,1.55,4.64,3.96,6.18,7.23,1.47,2.93,2.54,6.47,3.25,10.58.68,4.06,1.05,7.94,1.05,11.63,0,5.87-.39,10.56-1.15,14.04-.79,3.51-1.86,6.03-3.25,7.55-1.41,1.55-3.04,2.31-4.93,2.31-4.06,0-6.08-3.25-6.08-9.75,0-3.2.16-6.5.52-9.85.34-3.35.52-6.42.52-9.22,0-4.74-.73-8.28-2.2-10.58-1.47-2.36-3.62-3.56-6.39-3.56-3.51,0-6.34,1.55-8.49,4.61-2.1,3.09-3.14,7.34-3.14,12.78,0,2.88.24,6.03.73,9.43.47,3.35.73,6.44.73,9.22,0,3.09-.6,5.32-1.78,6.71-1.13,1.31-2.62,1.99-4.51,1.99-1.41,0-2.62-.29-3.67-.84-1.05-.47-1.94-1.52-2.62-3.14-.71-1.6-1.34-4.03-1.89-7.34-.37-2.44-.73-5.29-1.15-8.59-.37-3.27-.68-6.73-.94-10.37-.21-3.62-.42-7.15-.63-10.58-.16-3.41-.21-6.55-.21-9.43,0-9.01.84-15.54,2.52-19.6,1.73-4.11,4.19-6.18,7.34-6.18Z"/>
    <path class="cls-3" d="M739.43,126.39c-2.17,0-3.64-.84-4.4-2.52-.79-1.68-1.23-4.35-1.36-8.07l.94.52c-3.56,6.92-10.27,10.37-20.12,10.37-4.48,0-8.23-.81-11.21-2.41-3.01-1.6-5.21-3.72-6.6-6.39-1.41-2.72-2.1-5.68-2.1-8.91,0-5.45,1.89-9.75,5.66-12.89,3.77-3.2,8.8-4.82,15.09-4.82,4.11,0,7.68.6,10.69,1.78,3.07,1.21,5.68,2.88,7.86,5.03l-1.68-.21c-.42-6.34-1.78-10.9-4.09-13.62-2.31-2.78-5.61-4.19-9.85-4.19-2.46,0-4.72.39-6.81,1.15-2.1.79-4.03,1.55-5.76,2.31-1.76.79-3.41,1.15-4.93,1.15-1.47,0-2.67-.47-3.56-1.47-.84-1.05-1.26-2.33-1.26-3.88,0-2.31,1.07-4.45,3.25-6.5,2.23-2.02,5.13-3.67,8.7-4.93,3.62-1.26,7.57-1.89,11.84-1.89,5.08,0,9.46,1.26,13.1,3.77,3.69,2.46,6.5,6.03,8.38,10.69,1.68,4.06,2.86,8.59,3.56,13.62.68,5.03,1.05,10.37,1.05,16.03,0,4.35-.26,7.7-.73,10.06-.42,2.31-1.1,3.93-1.99,4.82-.92.89-2.15,1.36-3.67,1.36ZM718.48,115.8c2.1,0,4.19-.31,6.29-.94,2.15-.63,3.98-1.52,5.45-2.72,1.47-1.18,2.2-2.65,2.2-4.4,0-1.52-.63-2.78-1.89-3.77-1.21-.97-2.8-1.7-4.82-2.2-1.96-.55-4.09-.84-6.39-.84-3.85,0-6.79.68-8.8,1.99-1.96,1.34-2.93,3.12-2.93,5.34,0,2.38.89,4.24,2.72,5.55,1.89,1.34,4.61,1.99,8.17,1.99Z"/>
    <path class="cls-3" d="M767.06,66.34c2.02,0,3.38.84,4.09,2.52.76,1.68,1.15,4.14,1.15,7.34,0,.79-.08,1.57-.21,2.41-.08.84-.21,1.62-.42,2.31l-.21-1.89c1.52-4.11,3.88-7.34,7.02-9.64,3.2-2.31,6.55-3.46,10.06-3.46,3.98,0,7.26,1.13,9.85,3.35,2.65,2.17,4.61,5.29,5.87,9.33,1.31,3.98,1.99,8.67,1.99,14.04,0,3.35-.16,6.68-.42,9.96-.29,3.3-.68,6.29-1.15,9.01-.5,2.67-1.02,4.82-1.57,6.5-.79,2.17-1.76,3.77-2.93,4.82-1.21,1.05-2.62,1.57-4.3,1.57s-2.88-.58-3.77-1.78c-.92-1.18-1.36-2.78-1.36-4.82,0-2.15.13-4.77.42-7.86.34-3.07.65-6.21.94-9.43.26-3.2.42-6.1.42-8.7,0-8.85-2.91-13.31-8.7-13.31-3.09,0-5.66,1.41-7.75,4.19-2.1,2.72-3.51,6.65-4.19,11.74-.21,1.68-.31,3.82-.31,6.39s0,5.03,0,7.55c.05,2.46,0,4.56-.21,6.29-.21,3.77-.92,6.5-2.1,8.17-1.21,1.62-2.8,2.41-4.82,2.41-2.31,0-4.09-1.07-5.34-3.25-1.21-2.15-1.78-5.87-1.78-11.11,0-2.65.05-5.61.21-8.91.13-3.27.31-6.55.52-9.85.21-3.35.47-6.39.84-9.12.63-5.08,1.52-9.14,2.72-12.16,1.18-3.07,2.99-4.61,5.45-4.61Z"/>
    <path class="cls-3" d="M827.17,144.31c-3.43,0-5.13-1.83-5.13-5.45,0-2.04.68-4.45,2.1-7.23,1.39-2.8,3.41-5.82,6.08-9.01,2.72-3.2,6-6.5,9.85-9.85l-.1.73c-8.38-8.38-14.75-15.72-19.07-22.01-4.35-6.34-6.5-11.84-6.5-16.45,0-2.31.55-4.09,1.68-5.34,1.18-1.26,2.75-1.89,4.72-1.89,4.19,0,8.33,3.04,12.47,9.12,4.11,6.08,7.99,15.35,11.63,27.77h.42c2.36-13.05,4.93-22.64,7.65-28.71,2.72-6.13,5.97-9.22,9.75-9.22,1.73,0,3.04.63,3.88,1.89.89,1.21,1.36,2.91,1.36,5.13,0,1.83-.42,4.24-1.26,7.23-.79,3.01-1.89,6.39-3.35,10.16-1.41,3.77-3.04,7.7-4.93,11.74-1.83,4.06-3.85,8.04-6.08,11.95-5.66,10.22-10.48,17.63-14.46,22.32-3.98,4.74-7.55,7.13-10.69,7.13Z"/>
    <path class="cls-5" d="M66.03,12.24c5.24,0,8.83.6,10.79,1.78,2.02,1.13,3.04,2.78,3.04,4.93,0,2.31-1.21,4.06-3.56,5.24-2.31,1.13-5.97,1.68-11,1.68-2.46,0-5.24-.03-8.38-.1-3.09-.05-6.29-.24-9.64-.52l1.47-1.05c.55,2.8.68,5.82.42,9.01-.21,3.22-.89,6.26-1.99,9.12l-.42-.63c1.68-.34,3.67-.65,5.97-.94,2.36-.26,4.77-.47,7.23-.63,2.52-.21,4.77-.31,6.81-.31,3.9,0,6.65.52,8.28,1.57,1.68,1,2.52,2.2,2.52,3.67,0,1.62-.94,3.01-2.83,4.19-1.89,1.13-5.08,1.68-9.54,1.68-3.3,0-6.6-.1-9.96-.31-3.3-.26-6.44-.63-9.43-1.05l1.05-1.05c.68,1.96,1.21,4.24,1.57,6.81.34,2.52.52,5.08.52,7.65,0,2.59-.26,4.87-.73,6.81l-1.05-.63c2.02-.68,4.32-1.31,6.92-1.89,2.57-.55,5.19-.97,7.86-1.26,2.72-.26,5.27-.42,7.65-.42,3.35,0,5.87.39,7.55,1.15,1.68.71,2.52,1.94,2.52,3.67,0,1.34-.5,2.49-1.47,3.46-.92,1-2.49,1.89-4.72,2.72-1.47.5-3.22,1-5.24,1.47-2.04.42-4.19.79-6.5,1.05-2.25.26-4.48.42-6.71.42-3.85,0-7.07-.5-9.64-1.47-2.59-1.05-4.45-2.62-5.55-4.72-1.21-2.23-2.1-5.16-2.72-8.8-.58-3.62-.84-8.59-.84-14.88,0-5.79.21-10.58.63-14.36.42-3.77,1-6.84,1.78-9.22.76-2.44,1.62-4.32,2.62-5.66,1.47-2.1,3.46-3.72,5.97-4.93,2.57-1.18,5.48-2.02,8.7-2.52,3.2-.47,6.55-.73,10.06-.73Z"/>
    <path class="cls-5" d="M126.82,37.39c.63-2.44,1.7-4.64,3.25-6.6,1.52-2.02,3.38-3.62,5.55-4.82,2.23-1.18,4.66-1.78,7.34-1.78,3.14,0,5.92.79,8.38,2.31,2.44,1.47,4.35,3.96,5.76,7.44,1.39,3.43,2.1,8.02,2.1,13.73,0,3.01-.16,6.03-.42,9.01-.21,3.01-.5,5.84-.84,8.49-.37,2.59-.73,4.77-1.15,6.5-.63,2.38-1.57,4.24-2.83,5.55-1.21,1.26-2.72,1.89-4.61,1.89-1.62,0-2.88-.68-3.77-2.1-.92-1.39-1.36-3.38-1.36-5.97,0-1.26.13-2.83.42-4.72.34-1.89.68-3.93,1.05-6.18.34-2.31.65-4.64.94-7.02.34-2.36.52-4.61.52-6.71,0-3.14-.63-5.55-1.89-7.23-1.26-1.73-3.04-2.62-5.34-2.62-2.59,0-4.72,1.34-6.39,3.98-1.62,2.59-2.59,6.39-2.93,11.42-.21,4.48-.42,8.46-.63,11.95-.16,3.51-.6,6.37-1.36,8.59-.5,1.55-1.21,2.72-2.1,3.56-.84.79-1.96,1.15-3.35,1.15-1.68,0-3.01-.58-3.98-1.78-.92-1.26-1.41-3.17-1.47-5.76-.16-2.15-.18-4.72-.1-7.65.05-2.99.1-5.97.1-8.91s-.05-5.37-.1-7.34c-.29-3.82-1-6.65-2.1-8.49-1.13-1.81-2.8-2.72-5.03-2.72-2.59,0-4.66,1.23-6.18,3.67-1.55,2.38-2.49,5.71-2.83,9.96-.16,1.83-.21,4.03-.21,6.6.05,2.52.1,5.08.1,7.65.05,2.52.05,4.61,0,6.29-.08,3.64-.63,6.26-1.68,7.86-1.05,1.55-2.52,2.31-4.4,2.31-2.25,0-3.88-.68-4.93-2.1-1-1.47-1.62-3.8-1.89-7.02-.29-2.86-.5-5.68-.63-8.49-.08-2.86-.1-5.66-.1-8.38s.05-5.92.21-9.22c.13-3.35.34-6.52.63-9.54.42-2.99,1.07-5.5,1.99-7.55.89-2.1,2.41-3.14,4.51-3.14,1.73,0,2.96.89,3.67,2.62.76,1.68,1.15,4.3,1.15,7.86,0,1.26-.1,2.41-.31,3.46l-.21-1.89c1.18-3.9,3.09-6.94,5.76-9.12,2.65-2.23,5.61-3.35,8.91-3.35,4.24,0,7.6,1.36,10.06,4.09,2.44,2.72,3.77,6.55,3.98,11.42l-1.26-1.15Z"/>
    <path class="cls-5" d="M178.24,9.41c2.44,0,4.19.68,5.24,1.99,1.05,1.34,1.57,2.88,1.57,4.61,0,2.17-.68,3.85-1.99,5.03-1.26,1.21-3.09,1.78-5.45,1.78-2.31,0-4.06-.63-5.24-1.89-1.13-1.31-1.68-2.86-1.68-4.61,0-2.31.68-4.01,2.1-5.13,1.39-1.18,3.2-1.78,5.45-1.78ZM178.76,29.63c1.94,0,3.48,1.83,4.61,5.45,1.1,3.64,1.68,9.41,1.68,17.29,0,9.8-.71,16.85-2.1,21.17-1.41,4.27-3.54,6.39-6.39,6.39-2.17,0-3.77-1.57-4.82-4.72-1-3.2-1.47-8.8-1.47-16.77,0-9.69.79-16.92,2.41-21.69,1.6-4.74,3.62-7.13,6.08-7.13Z"/>
    <path class="cls-5" d="M205.87,79.2c-1.83,0-3.3-.42-4.4-1.26-1.13-.89-1.99-2.41-2.62-4.51-.92-2.99-1.62-6.81-2.1-11.42-.42-4.66-.63-10.4-.63-17.19,0-4.11.13-8.28.42-12.47.34-4.24.79-8.1,1.36-11.53.55-3.48,1.15-6.21,1.78-8.17.63-2.02,1.39-3.41,2.31-4.19.89-.84,1.94-1.26,3.14-1.26s2.12.42,2.83,1.26c.76.79,1.36,2.2,1.78,4.3.34,1.96.63,4.4.84,7.34.21,2.93.31,6.05.31,9.33,0,4.56-.21,9.33-.63,14.36s-1,9.96-1.68,14.78c-.71,4.82-1.55,9.27-2.52,13.31l-2.52-1.26c1.52-1.89,3.3-3.38,5.34-4.51,2.02-1.1,3.9-1.68,5.66-1.68,1.39,0,2.44.39,3.14,1.15.76.79,1.15,1.96,1.15,3.56,0,1.55-.71,3.12-2.1,4.72-1.34,1.55-3.01,2.83-5.03,3.88-1.96,1-3.93,1.47-5.87,1.47Z"/>
    <path class="cls-5" d="M235.11,9.41c2.44,0,4.19.68,5.24,1.99,1.05,1.34,1.57,2.88,1.57,4.61,0,2.17-.68,3.85-1.99,5.03-1.26,1.21-3.09,1.78-5.45,1.78s-4.06-.63-5.24-1.89c-1.13-1.31-1.68-2.86-1.68-4.61,0-2.31.68-4.01,2.1-5.13,1.39-1.18,3.2-1.78,5.45-1.78ZM235.63,29.63c1.94,0,3.48,1.83,4.61,5.45,1.1,3.64,1.68,9.41,1.68,17.29,0,9.8-.71,16.85-2.1,21.17-1.41,4.27-3.54,6.39-6.39,6.39-2.17,0-3.77-1.57-4.82-4.72-1-3.2-1.47-8.8-1.47-16.77,0-9.69.79-16.92,2.41-21.69,1.6-4.74,3.62-7.13,6.08-7.13Z"/>
    <path class="cls-5" d="M278.35,79.72c-6.71,0-12.05-.97-16.03-2.93-3.98-2.02-6.86-4.93-8.59-8.7-1.76-3.77-2.62-8.23-2.62-13.41,0-6.55,1.21-12.16,3.67-16.77,2.44-4.66,5.82-8.23,10.16-10.69,4.32-2.52,9.22-3.77,14.67-3.77,6.5,0,11.24,1.52,14.25,4.51,3.07,3.01,4.61,6.92,4.61,11.74,0,3.85-1.02,7.2-3.04,10.06-2.04,2.8-4.87,4.98-8.49,6.5-3.56,1.47-7.65,2.2-12.26,2.2-2.59,0-5.11-.31-7.55-.94-2.46-.68-4.61-1.6-6.5-2.72l2.1-3.98c-.16,1.41-.21,2.83-.21,4.3,0,4.27,1.31,7.34,3.98,9.22,2.65,1.83,6.42,2.72,11.32,2.72,3.82,0,6.86-.31,9.12-.94,2.31-.68,4.24-1.36,5.87-1.99,1.6-.68,3.14-1.05,4.61-1.05.84,0,1.6.26,2.31.73.68.42,1.26,1.1,1.68,1.99.47.84.73,1.86.73,3.04,0,1.83-.92,3.56-2.72,5.24-1.83,1.68-4.51,3.04-8.07,4.09-3.51,1.05-7.83,1.57-12.99,1.57ZM273.12,50.06c4.32,0,7.78-.89,10.37-2.72,2.57-1.81,3.88-4.03,3.88-6.71,0-2.15-.73-3.9-2.2-5.24-1.41-1.39-3.62-2.1-6.6-2.1-2.88,0-5.45.58-7.75,1.68-2.25,1.05-3.98,2.41-5.24,4.09-1.26,1.68-1.89,3.54-1.89,5.55,0,1.76.84,3.12,2.52,4.09,1.68.92,3.98,1.36,6.92,1.36Z"/>
    <path class="cls-1" d="M55.75,7.44c5.24,0,8.83.6,10.79,1.78,2.02,1.13,3.04,2.78,3.04,4.93,0,2.31-1.21,4.06-3.56,5.24-2.31,1.13-5.97,1.68-11,1.68-2.46,0-5.24-.03-8.38-.1-3.09-.05-6.29-.24-9.64-.52l1.47-1.05c.55,2.8.68,5.82.42,9.01-.21,3.22-.89,6.26-1.99,9.12l-.42-.63c1.68-.34,3.67-.65,5.97-.94,2.36-.26,4.77-.47,7.23-.63,2.52-.21,4.77-.31,6.81-.31,3.9,0,6.65.52,8.28,1.57,1.68,1,2.52,2.2,2.52,3.67,0,1.62-.94,3.01-2.83,4.19-1.89,1.13-5.08,1.68-9.54,1.68-3.3,0-6.6-.1-9.96-.31-3.3-.26-6.44-.63-9.43-1.05l1.05-1.05c.68,1.96,1.21,4.24,1.57,6.81.34,2.52.52,5.08.52,7.65s-.26,4.87-.73,6.81l-1.05-.63c2.02-.68,4.32-1.31,6.92-1.89,2.57-.55,5.19-.97,7.86-1.26,2.72-.26,5.27-.42,7.65-.42,3.35,0,5.87.39,7.55,1.15,1.68.71,2.52,1.94,2.52,3.67,0,1.34-.5,2.49-1.47,3.46-.92,1-2.49,1.89-4.72,2.72-1.47.5-3.22,1-5.24,1.47-2.04.42-4.19.79-6.5,1.05-2.25.26-4.48.42-6.71.42-3.85,0-7.07-.5-9.64-1.47-2.59-1.05-4.45-2.62-5.55-4.72-1.21-2.23-2.1-5.16-2.72-8.8-.58-3.62-.84-8.59-.84-14.88,0-5.79.21-10.58.63-14.36.42-3.77,1-6.84,1.78-9.22.76-2.44,1.62-4.32,2.62-5.66,1.47-2.1,3.46-3.72,5.97-4.93,2.57-1.18,5.48-2.02,8.7-2.52,3.2-.47,6.55-.73,10.06-.73Z"/>
    <path class="cls-1" d="M116.54,32.59c.63-2.44,1.7-4.64,3.25-6.6,1.52-2.02,3.38-3.62,5.55-4.82,2.23-1.18,4.66-1.78,7.34-1.78,3.14,0,5.92.79,8.38,2.31,2.44,1.47,4.35,3.96,5.76,7.44,1.39,3.43,2.1,8.02,2.1,13.73,0,3.01-.16,6.03-.42,9.01-.21,3.01-.5,5.84-.84,8.49-.37,2.59-.73,4.77-1.15,6.5-.63,2.38-1.57,4.24-2.83,5.55-1.21,1.26-2.72,1.89-4.61,1.89-1.62,0-2.88-.68-3.77-2.1-.92-1.39-1.36-3.38-1.36-5.97,0-1.26.13-2.83.42-4.72.34-1.89.68-3.93,1.05-6.18.34-2.31.65-4.64.94-7.02.34-2.36.52-4.61.52-6.71,0-3.14-.63-5.55-1.89-7.23-1.26-1.73-3.04-2.62-5.34-2.62-2.59,0-4.72,1.34-6.39,3.98-1.62,2.59-2.59,6.39-2.93,11.42-.21,4.48-.42,8.46-.63,11.95-.16,3.51-.6,6.37-1.36,8.59-.5,1.55-1.21,2.72-2.1,3.56-.84.79-1.96,1.15-3.35,1.15-1.68,0-3.01-.58-3.98-1.78-.92-1.26-1.41-3.17-1.47-5.76-.16-2.15-.18-4.72-.1-7.65.05-2.99.1-5.97.1-8.91s-.05-5.37-.1-7.34c-.29-3.82-1-6.65-2.1-8.49-1.13-1.81-2.8-2.72-5.03-2.72-2.59,0-4.66,1.23-6.18,3.67-1.55,2.38-2.49,5.71-2.83,9.96-.16,1.83-.21,4.03-.21,6.6.05,2.52.1,5.08.1,7.65.05,2.52.05,4.61,0,6.29-.08,3.64-.63,6.26-1.68,7.86-1.05,1.55-2.52,2.31-4.4,2.31-2.25,0-3.88-.68-4.93-2.1-1-1.47-1.62-3.8-1.89-7.02-.29-2.86-.5-5.68-.63-8.49-.08-2.86-.1-5.66-.1-8.38,0-2.86.05-5.92.21-9.22.13-3.35.34-6.52.63-9.54.42-2.99,1.07-5.5,1.99-7.55.89-2.1,2.41-3.14,4.51-3.14,1.73,0,2.96.89,3.67,2.62.76,1.68,1.15,4.3,1.15,7.86,0,1.26-.1,2.41-.31,3.46l-.21-1.89c1.18-3.9,3.09-6.94,5.76-9.12,2.65-2.23,5.61-3.35,8.91-3.35,4.24,0,7.6,1.36,10.06,4.09,2.44,2.72,3.77,6.55,3.98,11.42l-1.26-1.15Z"/>
    <path class="cls-1" d="M167.96,4.61c2.44,0,4.19.68,5.24,1.99,1.05,1.34,1.57,2.88,1.57,4.61,0,2.17-.68,3.85-1.99,5.03-1.26,1.21-3.09,1.78-5.45,1.78s-4.06-.63-5.24-1.89c-1.13-1.31-1.68-2.86-1.68-4.61,0-2.31.68-4.01,2.1-5.13,1.39-1.18,3.2-1.78,5.45-1.78ZM168.48,24.84c1.94,0,3.48,1.83,4.61,5.45,1.1,3.64,1.68,9.41,1.68,17.29,0,9.8-.71,16.85-2.1,21.17-1.41,4.27-3.54,6.39-6.39,6.39-2.17,0-3.77-1.57-4.82-4.72-1-3.2-1.47-8.8-1.47-16.77,0-9.69.79-16.92,2.41-21.69,1.6-4.74,3.62-7.13,6.08-7.13Z"/>
    <path class="cls-1" d="M195.59,74.4c-1.83,0-3.3-.42-4.4-1.26-1.13-.89-1.99-2.41-2.62-4.51-.92-2.99-1.62-6.81-2.1-11.42-.42-4.66-.63-10.4-.63-17.19,0-4.11.13-8.28.42-12.47.34-4.24.79-8.1,1.36-11.53.55-3.48,1.15-6.21,1.78-8.17.63-2.02,1.39-3.41,2.31-4.19.89-.84,1.94-1.26,3.14-1.26s2.12.42,2.83,1.26c.76.79,1.36,2.2,1.78,4.3.34,1.96.63,4.4.84,7.34s.31,6.05.31,9.33c0,4.56-.21,9.33-.63,14.36s-1,9.96-1.68,14.78c-.71,4.82-1.55,9.27-2.52,13.31l-2.52-1.26c1.52-1.89,3.3-3.38,5.34-4.51,2.02-1.1,3.9-1.68,5.66-1.68,1.39,0,2.44.39,3.14,1.15.76.79,1.15,1.96,1.15,3.56s-.71,3.12-2.1,4.72c-1.34,1.55-3.01,2.83-5.03,3.88-1.96,1-3.93,1.47-5.87,1.47Z"/>
    <path class="cls-1" d="M224.83,4.61c2.44,0,4.19.68,5.24,1.99,1.05,1.34,1.57,2.88,1.57,4.61,0,2.17-.68,3.85-1.99,5.03-1.26,1.21-3.09,1.78-5.45,1.78-2.31,0-4.06-.63-5.24-1.89-1.13-1.31-1.68-2.86-1.68-4.61,0-2.31.68-4.01,2.1-5.13,1.39-1.18,3.2-1.78,5.45-1.78ZM225.35,24.84c1.94,0,3.48,1.83,4.61,5.45,1.1,3.64,1.68,9.41,1.68,17.29,0,9.8-.71,16.85-2.1,21.17-1.41,4.27-3.54,6.39-6.39,6.39-2.17,0-3.77-1.57-4.82-4.72-1-3.2-1.47-8.8-1.47-16.77,0-9.69.79-16.92,2.41-21.69,1.6-4.74,3.62-7.13,6.08-7.13Z"/>
    <path class="cls-1" d="M268.07,74.93c-6.71,0-12.05-.97-16.03-2.93-3.98-2.02-6.86-4.93-8.59-8.7-1.76-3.77-2.62-8.23-2.62-13.41,0-6.55,1.21-12.16,3.67-16.77,2.44-4.66,5.82-8.23,10.16-10.69,4.32-2.52,9.22-3.77,14.67-3.77,6.5,0,11.24,1.52,14.25,4.51,3.07,3.01,4.61,6.92,4.61,11.74,0,3.85-1.02,7.2-3.04,10.06-2.04,2.8-4.87,4.98-8.49,6.5-3.56,1.47-7.65,2.2-12.26,2.2-2.59,0-5.11-.31-7.55-.94-2.46-.68-4.61-1.6-6.5-2.72l2.1-3.98c-.16,1.41-.21,2.83-.21,4.3,0,4.27,1.31,7.34,3.98,9.22,2.65,1.83,6.42,2.72,11.32,2.72,3.82,0,6.86-.31,9.12-.94,2.31-.68,4.24-1.36,5.87-1.99,1.6-.68,3.14-1.05,4.61-1.05.84,0,1.6.26,2.31.73.68.42,1.26,1.1,1.68,1.99.47.84.73,1.86.73,3.04,0,1.83-.92,3.56-2.72,5.24-1.83,1.68-4.51,3.04-8.07,4.09-3.51,1.05-7.83,1.57-12.99,1.57ZM262.83,45.27c4.32,0,7.78-.89,10.37-2.72,2.57-1.81,3.88-4.03,3.88-6.71,0-2.15-.73-3.9-2.2-5.24-1.41-1.39-3.62-2.1-6.6-2.1-2.88,0-5.45.58-7.75,1.68-2.25,1.05-3.98,2.41-5.24,4.09-1.26,1.68-1.89,3.54-1.89,5.55,0,1.76.84,3.12,2.52,4.09,1.68.92,3.98,1.36,6.92,1.36Z"/>
    <path class="cls-2" d="M60.89,9.84c5.24,0,8.83.6,10.79,1.78,2.02,1.13,3.04,2.78,3.04,4.93,0,2.31-1.21,4.06-3.56,5.24-2.31,1.13-5.97,1.68-11,1.68-2.46,0-5.24-.03-8.38-.1-3.09-.05-6.29-.24-9.64-.52l1.47-1.05c.55,2.8.68,5.82.42,9.01-.21,3.22-.89,6.26-1.99,9.12l-.42-.63c1.68-.34,3.67-.65,5.97-.94,2.36-.26,4.77-.47,7.23-.63,2.52-.21,4.77-.31,6.81-.31,3.9,0,6.65.52,8.28,1.57,1.68,1,2.52,2.2,2.52,3.67,0,1.62-.94,3.01-2.83,4.19-1.89,1.13-5.08,1.68-9.54,1.68-3.3,0-6.6-.1-9.96-.31-3.3-.26-6.44-.63-9.43-1.05l1.05-1.05c.68,1.96,1.21,4.24,1.57,6.81.34,2.52.52,5.08.52,7.65s-.26,4.87-.73,6.81l-1.05-.63c2.02-.68,4.32-1.31,6.92-1.89,2.57-.55,5.19-.97,7.86-1.26,2.72-.26,5.27-.42,7.65-.42,3.35,0,5.87.39,7.55,1.15,1.68.71,2.52,1.94,2.52,3.67,0,1.34-.5,2.49-1.47,3.46-.92,1-2.49,1.89-4.72,2.72-1.47.5-3.22,1-5.24,1.47-2.04.42-4.19.79-6.5,1.05-2.25.26-4.48.42-6.71.42-3.85,0-7.07-.5-9.64-1.47-2.59-1.05-4.45-2.62-5.55-4.72-1.21-2.23-2.1-5.16-2.72-8.8-.58-3.62-.84-8.59-.84-14.88,0-5.79.21-10.58.63-14.36.42-3.77,1-6.84,1.78-9.22.76-2.44,1.62-4.32,2.62-5.66,1.47-2.1,3.46-3.72,5.97-4.93,2.57-1.18,5.48-2.02,8.7-2.52,3.2-.47,6.55-.73,10.06-.73Z"/>
    <path class="cls-2" d="M121.68,34.99c.63-2.44,1.7-4.64,3.25-6.6,1.52-2.02,3.38-3.62,5.55-4.82,2.23-1.18,4.66-1.78,7.34-1.78,3.14,0,5.92.79,8.38,2.31,2.44,1.47,4.35,3.96,5.76,7.44,1.39,3.43,2.1,8.02,2.1,13.73,0,3.01-.16,6.03-.42,9.01-.21,3.01-.5,5.84-.84,8.49-.37,2.59-.73,4.77-1.15,6.5-.63,2.38-1.57,4.24-2.83,5.55-1.21,1.26-2.72,1.89-4.61,1.89-1.62,0-2.88-.68-3.77-2.1-.92-1.39-1.36-3.38-1.36-5.97,0-1.26.13-2.83.42-4.72.34-1.89.68-3.93,1.05-6.18.34-2.31.65-4.64.94-7.02.34-2.36.52-4.61.52-6.71,0-3.14-.63-5.55-1.89-7.23-1.26-1.73-3.04-2.62-5.34-2.62-2.59,0-4.72,1.34-6.39,3.98-1.62,2.59-2.59,6.39-2.93,11.42-.21,4.48-.42,8.46-.63,11.95-.16,3.51-.6,6.37-1.36,8.59-.5,1.55-1.21,2.72-2.1,3.56-.84.79-1.96,1.15-3.35,1.15-1.68,0-3.01-.58-3.98-1.78-.92-1.26-1.41-3.17-1.47-5.76-.16-2.15-.18-4.72-.1-7.65.05-2.99.1-5.97.1-8.91s-.05-5.37-.1-7.34c-.29-3.82-1-6.65-2.1-8.49-1.13-1.81-2.8-2.72-5.03-2.72-2.59,0-4.66,1.23-6.18,3.67-1.55,2.38-2.49,5.71-2.83,9.96-.16,1.83-.21,4.03-.21,6.6.05,2.52.1,5.08.1,7.65.05,2.52.05,4.61,0,6.29-.08,3.64-.63,6.26-1.68,7.86-1.05,1.55-2.52,2.31-4.4,2.31-2.25,0-3.88-.68-4.93-2.1-1-1.47-1.62-3.8-1.89-7.02-.29-2.86-.5-5.68-.63-8.49-.08-2.86-.1-5.66-.1-8.38s.05-5.92.21-9.22c.13-3.35.34-6.52.63-9.54.42-2.99,1.07-5.5,1.99-7.55.89-2.1,2.41-3.14,4.51-3.14,1.73,0,2.96.89,3.67,2.62.76,1.68,1.15,4.3,1.15,7.86,0,1.26-.1,2.41-.31,3.46l-.21-1.89c1.18-3.9,3.09-6.94,5.76-9.12,2.65-2.23,5.61-3.35,8.91-3.35,4.24,0,7.6,1.36,10.06,4.09,2.44,2.72,3.77,6.55,3.98,11.42l-1.26-1.15Z"/>
    <path class="cls-2" d="M173.1,7.01c2.44,0,4.19.68,5.24,1.99,1.05,1.34,1.57,2.88,1.57,4.61,0,2.17-.68,3.85-1.99,5.03-1.26,1.21-3.09,1.78-5.45,1.78-2.31,0-4.06-.63-5.24-1.89-1.13-1.31-1.68-2.86-1.68-4.61,0-2.31.68-4.01,2.1-5.13,1.39-1.18,3.2-1.78,5.45-1.78ZM173.62,27.23c1.94,0,3.48,1.83,4.61,5.45,1.1,3.64,1.68,9.41,1.68,17.29,0,9.8-.71,16.85-2.1,21.17-1.41,4.27-3.54,6.39-6.39,6.39-2.17,0-3.77-1.57-4.82-4.72-1-3.2-1.47-8.8-1.47-16.77,0-9.69.79-16.92,2.41-21.69,1.6-4.74,3.62-7.13,6.08-7.13Z"/>
    <path class="cls-2" d="M200.73,76.8c-1.83,0-3.3-.42-4.4-1.26-1.13-.89-1.99-2.41-2.62-4.51-.92-2.99-1.62-6.81-2.1-11.42-.42-4.66-.63-10.4-.63-17.19,0-4.11.13-8.28.42-12.47.34-4.24.79-8.1,1.36-11.53.55-3.48,1.15-6.21,1.78-8.17.63-2.02,1.39-3.41,2.31-4.19.89-.84,1.94-1.26,3.14-1.26s2.12.42,2.83,1.26c.76.79,1.36,2.2,1.78,4.3.34,1.96.63,4.4.84,7.34.21,2.93.31,6.05.31,9.33,0,4.56-.21,9.33-.63,14.36s-1,9.96-1.68,14.78c-.71,4.82-1.55,9.27-2.52,13.31l-2.52-1.26c1.52-1.89,3.3-3.38,5.34-4.51,2.02-1.1,3.9-1.68,5.66-1.68,1.39,0,2.44.39,3.14,1.15.76.79,1.15,1.96,1.15,3.56,0,1.55-.71,3.12-2.1,4.72-1.34,1.55-3.01,2.83-5.03,3.88-1.96,1-3.93,1.47-5.87,1.47Z"/>
    <path class="cls-2" d="M229.97,7.01c2.44,0,4.19.68,5.24,1.99,1.05,1.34,1.57,2.88,1.57,4.61,0,2.17-.68,3.85-1.99,5.03-1.26,1.21-3.09,1.78-5.45,1.78-2.31,0-4.06-.63-5.24-1.89-1.13-1.31-1.68-2.86-1.68-4.61,0-2.31.68-4.01,2.1-5.13,1.39-1.18,3.2-1.78,5.45-1.78ZM230.49,27.23c1.94,0,3.48,1.83,4.61,5.45,1.1,3.64,1.68,9.41,1.68,17.29,0,9.8-.71,16.85-2.1,21.17-1.41,4.27-3.54,6.39-6.39,6.39-2.17,0-3.77-1.57-4.82-4.72-1-3.2-1.47-8.8-1.47-16.77,0-9.69.79-16.92,2.41-21.69,1.6-4.74,3.62-7.13,6.08-7.13Z"/>
    <path class="cls-2" d="M273.21,77.32c-6.71,0-12.05-.97-16.03-2.93-3.98-2.02-6.86-4.93-8.59-8.7-1.76-3.77-2.62-8.23-2.62-13.41,0-6.55,1.21-12.16,3.67-16.77,2.44-4.66,5.82-8.23,10.16-10.69,4.32-2.52,9.22-3.77,14.67-3.77,6.5,0,11.24,1.52,14.25,4.51,3.07,3.01,4.61,6.92,4.61,11.74,0,3.85-1.02,7.2-3.04,10.06-2.04,2.8-4.87,4.98-8.49,6.5-3.56,1.47-7.65,2.2-12.26,2.2-2.59,0-5.11-.31-7.55-.94-2.46-.68-4.61-1.6-6.5-2.72l2.1-3.98c-.16,1.41-.21,2.83-.21,4.3,0,4.27,1.31,7.34,3.98,9.22,2.65,1.83,6.42,2.72,11.32,2.72,3.82,0,6.86-.31,9.12-.94,2.31-.68,4.24-1.36,5.87-1.99,1.6-.68,3.14-1.05,4.61-1.05.84,0,1.6.26,2.31.73.68.42,1.26,1.1,1.68,1.99.47.84.73,1.86.73,3.04,0,1.83-.92,3.56-2.72,5.24-1.83,1.68-4.51,3.04-8.07,4.09-3.51,1.05-7.83,1.57-12.99,1.57ZM267.98,47.67c4.32,0,7.78-.89,10.37-2.72,2.57-1.81,3.88-4.03,3.88-6.71,0-2.15-.73-3.9-2.2-5.24-1.41-1.39-3.62-2.1-6.6-2.1-2.88,0-5.45.58-7.75,1.68-2.25,1.05-3.98,2.41-5.24,4.09-1.26,1.68-1.89,3.54-1.89,5.55,0,1.76.84,3.12,2.52,4.09,1.68.92,3.98,1.36,6.92,1.36Z"/>
    <path class="cls-5" d="M326.12,109.2c-4.48,0-8.28-.89-11.42-2.62-3.14-1.81-5.55-4.3-7.23-7.44-1.62-3.2-2.41-6.86-2.41-11,0-4.82,1.39-8.72,4.19-11.74,2.86-2.99,6.84-5.06,11.95-6.18l-.52,4.4c-3.3-2.15-5.61-4.53-6.92-7.13-1.26-2.65-1.89-5.27-1.89-7.86,0-3.77.94-6.92,2.83-9.43,1.94-2.52,4.51-4.4,7.65-5.66,3.14-1.26,6.5-1.89,10.06-1.89,5.71,0,10.09,1.44,13.1,4.3,2.99,2.8,4.51,6.34,4.51,10.58,0,3.85-1.47,7.34-4.4,10.48-2.88,3.09-7.52,5.74-13.94,7.96l1.05-2.72c2.52,1.89,4.77,4.19,6.81,6.92,2.02,2.67,3.62,5.42,4.82,8.28l-3.98.31c2.65-6.13,5.08-10.43,7.34-12.89,2.23-2.52,4.35-3.77,6.39-3.77,1.89,0,3.25.52,4.09,1.57.84,1.05,1.26,2.31,1.26,3.77,0,2.1-1.13,4.56-3.35,7.34-2.17,2.72-5.13,5.5-8.91,8.28l.42-3.04c4.95,2.93,8.33,5.53,10.16,7.75,1.89,2.17,2.83,4.14,2.83,5.87,0,1.34-.42,2.49-1.26,3.46-.84.92-2.04,1.36-3.56,1.36-2.31,0-4.61-.89-6.92-2.72-2.31-1.89-4.72-4.53-7.23-7.96l1.68.63c-1.62,3.56-3.88,6.26-6.81,8.07-2.93,1.81-6.39,2.72-10.37,2.72ZM326.96,99.66c2.52,0,4.51-.63,5.97-1.89,1.47-1.31,2.2-2.96,2.2-4.93,0-2.1-.58-4.22-1.68-6.39-1.13-2.15-2.59-3.98-4.4-5.45-1.76-1.52-3.67-2.31-5.76-2.31-1.89,0-3.62.81-5.13,2.41-1.55,1.55-2.31,3.72-2.31,6.5,0,2.25.47,4.3,1.47,6.18.97,1.83,2.31,3.25,3.98,4.3,1.73,1.05,3.62,1.57,5.66,1.57ZM329.58,67.59c2.65,0,4.87-.76,6.71-2.31,1.81-1.6,2.72-3.67,2.72-6.18,0-1.89-.63-3.51-1.89-4.93-1.26-1.39-3.2-2.1-5.76-2.1-2.52,0-4.58.71-6.18,2.1-1.62,1.41-2.41,3.41-2.41,5.97,0,2.17.55,3.96,1.68,5.34,1.18,1.41,2.88,2.1,5.13,2.1Z"/>
    <path class="cls-1" d="M315.84,104.4c-4.48,0-8.28-.89-11.42-2.62-3.14-1.81-5.55-4.3-7.23-7.44-1.62-3.2-2.41-6.86-2.41-11,0-4.82,1.39-8.72,4.19-11.74,2.86-2.99,6.84-5.06,11.95-6.18l-.52,4.4c-3.3-2.15-5.61-4.53-6.92-7.13-1.26-2.65-1.89-5.27-1.89-7.86,0-3.77.94-6.92,2.83-9.43,1.94-2.52,4.51-4.4,7.65-5.66s6.5-1.89,10.06-1.89c5.71,0,10.09,1.44,13.1,4.3,2.99,2.8,4.51,6.34,4.51,10.58,0,3.85-1.47,7.34-4.4,10.48-2.88,3.09-7.52,5.74-13.94,7.96l1.05-2.72c2.52,1.89,4.77,4.19,6.81,6.92,2.02,2.67,3.62,5.42,4.82,8.28l-3.98.31c2.65-6.13,5.08-10.43,7.34-12.89,2.23-2.52,4.35-3.77,6.39-3.77,1.89,0,3.25.52,4.09,1.57s1.26,2.31,1.26,3.77c0,2.1-1.13,4.56-3.35,7.34-2.17,2.72-5.13,5.5-8.91,8.28l.42-3.04c4.95,2.93,8.33,5.53,10.16,7.75,1.89,2.17,2.83,4.14,2.83,5.87,0,1.34-.42,2.49-1.26,3.46-.84.92-2.04,1.36-3.56,1.36-2.31,0-4.61-.89-6.92-2.72-2.31-1.89-4.72-4.53-7.23-7.96l1.68.63c-1.62,3.56-3.88,6.26-6.81,8.07-2.93,1.81-6.39,2.72-10.37,2.72ZM316.68,94.87c2.52,0,4.51-.63,5.97-1.89,1.47-1.31,2.2-2.96,2.2-4.93,0-2.1-.58-4.22-1.68-6.39-1.13-2.15-2.59-3.98-4.4-5.45-1.76-1.52-3.67-2.31-5.76-2.31-1.89,0-3.62.81-5.13,2.41-1.55,1.55-2.31,3.72-2.31,6.5,0,2.25.47,4.3,1.47,6.18.97,1.83,2.31,3.25,3.98,4.3,1.73,1.05,3.62,1.57,5.66,1.57ZM319.3,62.8c2.65,0,4.87-.76,6.71-2.31,1.81-1.6,2.72-3.67,2.72-6.18,0-1.89-.63-3.51-1.89-4.93-1.26-1.39-3.2-2.1-5.76-2.1s-4.58.71-6.18,2.1c-1.62,1.41-2.41,3.41-2.41,5.97,0,2.17.55,3.96,1.68,5.34,1.18,1.41,2.88,2.1,5.13,2.1Z"/>
    <path class="cls-4" d="M320.98,106.8c-4.48,0-8.28-.89-11.42-2.62-3.14-1.81-5.55-4.3-7.23-7.44-1.62-3.2-2.41-6.86-2.41-11,0-4.82,1.39-8.72,4.19-11.74,2.86-2.99,6.84-5.06,11.95-6.18l-.52,4.4c-3.3-2.15-5.61-4.53-6.92-7.13-1.26-2.65-1.89-5.27-1.89-7.86,0-3.77.94-6.92,2.83-9.43,1.94-2.52,4.51-4.4,7.65-5.66,3.14-1.26,6.5-1.89,10.06-1.89,5.71,0,10.09,1.44,13.1,4.3,2.99,2.8,4.51,6.34,4.51,10.58,0,3.85-1.47,7.34-4.4,10.48-2.88,3.09-7.52,5.74-13.94,7.96l1.05-2.72c2.52,1.89,4.77,4.19,6.81,6.92,2.02,2.67,3.62,5.42,4.82,8.28l-3.98.31c2.65-6.13,5.08-10.43,7.34-12.89,2.23-2.52,4.35-3.77,6.39-3.77,1.89,0,3.25.52,4.09,1.57s1.26,2.31,1.26,3.77c0,2.1-1.13,4.56-3.35,7.34-2.17,2.72-5.13,5.5-8.91,8.28l.42-3.04c4.95,2.93,8.33,5.53,10.16,7.75,1.89,2.17,2.83,4.14,2.83,5.87,0,1.34-.42,2.49-1.26,3.46-.84.92-2.04,1.36-3.56,1.36-2.31,0-4.61-.89-6.92-2.72-2.31-1.89-4.72-4.53-7.23-7.96l1.68.63c-1.62,3.56-3.88,6.26-6.81,8.07-2.93,1.81-6.39,2.72-10.37,2.72ZM321.82,97.26c2.52,0,4.51-.63,5.97-1.89,1.47-1.31,2.2-2.96,2.2-4.93,0-2.1-.58-4.22-1.68-6.39-1.13-2.15-2.59-3.98-4.4-5.45-1.76-1.52-3.67-2.31-5.76-2.31-1.89,0-3.62.81-5.13,2.41-1.55,1.55-2.31,3.72-2.31,6.5,0,2.25.47,4.3,1.47,6.18.97,1.83,2.31,3.25,3.98,4.3,1.73,1.05,3.62,1.57,5.66,1.57ZM324.44,65.2c2.65,0,4.87-.76,6.71-2.31,1.81-1.6,2.72-3.67,2.72-6.18,0-1.89-.63-3.51-1.89-4.93-1.26-1.39-3.2-2.1-5.76-2.1s-4.58.71-6.18,2.1c-1.62,1.41-2.41,3.41-2.41,5.97,0,2.17.55,3.96,1.68,5.34,1.18,1.41,2.88,2.1,5.13,2.1Z"/>
  </g>
</svg>